<svg width="640" height="512" viewBox="0 0 640 512" fill="none" xmlns="http://www.w3.org/2000/svg">
<path d="M352 432C352 440.836 344.836 448 336 448H176C167.162 448 160 440.836 160 432V128H47.9999C21.4899 128 0.000244141 149.5 0.000244141 176V464C0.000244141 490.51 21.4902 512 48.0002 512H464C490.51 512 512 490.51 512 464L512 384H352V432ZM104 439C104 443.969 99.9689 448 94.9999 448H64.9999C60.0309 448 55.9999 443.969 55.9999 439V409C55.9999 404.031 60.0309 400 64.9999 400H94.9999C99.9689 400 104 404.031 104 409V439ZM104 335C104 339.969 99.9689 344 94.9999 344H64.9999C60.0309 344 55.9999 339.969 55.9999 335V305C55.9999 300.031 60.0309 296 64.9999 296H94.9999C99.9689 296 104 300.031 104 305V335ZM104 231C104 235.969 99.9689 240 94.9999 240H64.9999C60.0309 240 55.9999 235.969 55.9999 231V201C55.9999 196 60.0299 192 64.9999 192H94.9999C99.9689 192 104 196.031 104 201V231ZM408 409C408 404.031 412.031 400 417 400H447C451.969 400 456 404.031 456 409V439C456 443.969 451.969 448 447 448H417C412.031 448 408 443.969 408 439V409ZM591.1 0H239.1C213.5 0 191.1 21.49 191.1 48V304C191.1 330.51 212.59 352 239.1 352H591.1C617.61 352 639.1 330.51 639.1 304V48C640 21.49 618.5 0 591.1 0ZM303.1 64C320.78 64 335.1 78.33 335.1 96C335.1 113.67 320.78 128 303.1 128C286.3 128 271.1 113.7 271.1 96C271.1 78.3 286.3 64 303.1 64ZM574.1 279.6C571.3 284.8 565.9 288 560 288H271.1C265.1 288 260.5 284.6 257.7 279.3C255 273.9 255.5 267.4 259.1 262.6L329.1 166.6C332.1 162.4 336.9 160 341.1 160C346.21 160 351.014 162.441 354.03 166.574L376.38 197.234L439.12 103.124C442.1 98.67 447.1 96 453.3 96C458.648 96 463.64 98.672 466.61 103.125L573.31 263.125C576.6 268 576.9 274.3 574.1 279.6Z" fill="#00E0FF"/>
</svg>
