<svg width="448" height="448" viewBox="0 0 448 448" fill="none" xmlns="http://www.w3.org/2000/svg">
<path d="M100.59 302.24C149.16 305.55 159.54 304.35 159.54 314.18C159.54 334.18 93.99 334.24 93.99 315.7C94 310.61 97.28 306.3 100.59 302.24V302.24ZM128.54 185.6C96.25 185.6 94.79 230.07 127.79 230.07C160.3 230.07 159.5 185.6 128.54 185.6V185.6ZM448 48V400C448 412.73 442.943 424.939 433.941 433.941C424.939 442.943 412.73 448 400 448H48C35.2696 448 23.0606 442.943 14.0589 433.941C5.05713 424.939 0 412.73 0 400L0 48C0 35.2696 5.05713 23.0606 14.0589 14.0589C23.0606 5.05713 35.2696 0 48 0H400C412.73 0 424.939 5.05713 433.941 14.0589C442.943 23.0606 448 35.2696 448 48V48ZM221 117.31C221 131.8 229.38 140.19 243.86 140.19C258.6 140.19 266.99 131.8 266.99 117.31C266.99 102.82 258.62 95 243.88 95C229.4 95 221 102.84 221 117.31ZM199.18 163H149.63C124.63 156.45 68.07 158.15 68.07 209.75C68.07 228.55 77.47 241.75 89.92 247.86C74.23 262.23 66.8 269 66.8 278.6C66.8 285.47 69.59 291.82 77.98 295.36C69.08 303.76 63.98 309.84 63.98 321.28C64 341.35 81.53 353 127.52 353C171.74 353 197.39 336.49 197.39 307.27C197.39 270.6 169.16 271.95 102.62 267.89L111 254.46C128 259.2 185.19 260.69 185.19 212.03C185.19 200.34 180.36 192.21 175.79 186.36L199.17 184.58L199.18 163ZM283.52 272.84L270.52 271.06C266.7 270.55 266.45 270.06 266.45 265.97V160.52H213.85L211.06 181.09C226.81 186.64 228.06 185.95 228.06 191.26V266C228.06 271.62 227.75 270.58 211.06 272.87V292.93H283.48L283.52 272.84ZM384 283L377.13 260.63C336.2 276 339.28 248.22 339.28 243.9V183.18H377.13V157.77H341.31C338.44 157.77 339.31 160.29 339.31 119.14H315.13C312.34 146.84 303.45 158.02 281.13 160.56V183.18C301.6 183.18 300.95 182.33 300.95 185.72V252.29C300.95 281.01 312.38 293.2 342.62 293.2C357.07 293.2 373.07 288.37 384 283V283Z" fill="#00E0FF"/>
</svg>
