<svg width="232" height="512" viewBox="0 0 232 512" fill="none" xmlns="http://www.w3.org/2000/svg">
<path d="M197.5 391.067L183.4 415.667L178.8 495.867C178.8 504.767 150.5 511.967 115.7 511.967C80.9 511.967 52.6 504.767 52.6 495.867L46.8 416.467L31.9 391.067C73.1 408.367 157.9 407.767 197.5 391.067V391.067ZM1.5 137.767L15.1 263.267C21 243.267 35.9 216.267 55.1 208.067C61.4 205.367 67.8 205.367 73.8 208.967C79 211.967 83.4 218.267 83.9 220.767C85.1 227.267 81.9 229.867 79.4 229.867C76.4 229.867 74.1 225.267 72.6 222.567C68.5 215.267 62.3 214.967 55.7 219.767C48.8 224.767 42.8 233.167 38.6 240.467C33.5 249.267 29.2 258.967 26.6 268.667C25.1 274.267 23.7 283.267 26 288.567C27 290.767 28.5 292.167 30.9 292.167C35.9 292.167 43.2 285.567 46.7 282.067C51.2 277.567 57 270.567 59.2 266.067L64.4 250.567C67 243.767 74.3 244.967 74.3 250.567C74.3 260.767 70.6 264.167 64.3 285.267C58.5 304.767 56.7 311.067 56.7 311.067C56 313.867 53.3 318.567 50.4 318.567C49.2 318.567 48.3 318.167 47.8 317.367C46.8 315.967 46.9 312.067 47 311.067C47.2 307.867 53.3 288.867 54.3 285.867C52.3 288.067 50.2 290.267 47.9 292.467C42.5 297.567 33.8 304.267 26.4 304.267C23 304.267 20.8 303.367 18.7 301.867L26.3 381.467C28.3 386.467 65.5 398.567 114.5 398.567C163.6 398.567 200.8 386.367 202.7 381.467L213.6 286.867C207.9 292.067 201.3 298.467 194 301.667C188.6 303.967 176.6 305.467 176.6 295.967C176.6 290.767 185.7 281.167 191 274.467C192.4 272.767 195.7 268.567 195.7 266.367C195.7 263.467 189.7 264.167 184 268.867C180.8 271.567 177.8 275.167 175.3 278.567C171 284.567 168.7 289.767 166.8 294.067C160.6 308.267 162.7 302.667 157.7 316.067C152.7 329.367 153.5 327.867 152.5 330.067C151.6 331.967 150.3 333.567 148.5 334.567C146.6 335.567 144 335.467 142.4 334.267C141.5 333.667 141.1 332.367 141.1 330.567C141.1 329.667 141.2 328.767 141.4 327.867C142.9 321.767 149.2 309.767 156.4 293.567C158 289.867 157.4 290.967 157.2 291.267C151 297.267 146.3 300.167 142.8 301.767C137 304.367 129.8 304.367 128.3 297.667C128.2 297.267 128.2 296.867 128.1 296.467C116.3 305.667 103.8 308.167 108.1 288.367C103.5 296.567 95.5 303.267 85.7 303.267C81.6 303.267 78.6 301.867 77.1 298.167C74.8 292.667 78.4 283.267 81.7 274.367C83.4 269.867 85.7 264.467 88.8 258.167C90.4 254.767 93 252.767 96.4 253.667C97 253.867 97.5 254.067 98 254.367C100.6 256.167 99.6 258.867 98.3 261.567C94.5 269.067 91.2 274.567 89 282.367C88.1 285.667 87 291.367 90.5 291.367C92.9 291.367 95.2 290.567 97.4 288.967C102 285.567 105.7 280.467 108.5 275.467C110.5 271.867 112.9 267.167 114.1 263.167C114.6 261.467 115.2 259.867 115.9 258.367C117 255.867 118.5 253.267 121.1 253.267C122.4 253.267 123.5 253.767 124.3 254.767C126 256.967 125.6 259.267 124.7 261.667C122.7 267.267 120 272.267 117.8 278.367C116.5 281.867 115.1 286.367 115.1 290.067C115.1 293.467 118.8 292.667 121.9 291.267C124.3 290.167 126.7 288.467 128.7 286.767C129.9 281.867 129.6 282.967 155.1 218.567C156.4 215.267 158.8 213.867 161.2 213.867C162.4 213.867 163.4 214.267 164.4 214.967C166.1 216.267 166.1 219.067 165.4 221.167C164.7 223.067 164.8 222.467 160.9 231.667C155.7 243.767 152.3 252.467 147.7 263.567C145.8 268.167 140 282.467 139 285.867C138.4 288.067 137.7 291.667 140 291.667C145.4 291.667 159.3 278.567 163.1 274.667C163.3 274.367 163.6 274.267 164 274.067C164.6 272.167 165.2 270.367 165.7 268.567C167.1 264.767 168.4 260.367 171 257.267C171.8 256.267 172.7 255.667 173.7 255.667C176.5 255.667 177.9 256.867 177.9 259.667C177.9 260.767 177.2 264.767 176.8 265.867C178.2 264.367 179.7 262.867 181.3 261.367C196.3 247.467 207 254.567 207 261.567C207 268.967 198.1 279.267 193.2 284.967C191.6 286.867 188.3 290.367 188.2 291.367C188.2 292.667 189.1 293.167 190.4 293.167C192.4 293.167 196.8 289.667 198.4 288.467C203.4 284.567 210.2 278.567 215 274.367L229.8 137.567C199.3 154.667 32.2 154.767 1.5 137.767V137.767ZM231.2 129.267C231.2 150.267 0 150.267 0 129.267C0 120.467 51.8 113.367 115.6 113.367C124.6 113.367 133.4 113.467 141.9 113.767L154.5 65.0674L215.8 0.567351C217.2 -0.832649 221.6 0.367351 225.7 4.06735C229.8 7.76735 232.3 11.9674 231 13.3674L230.9 13.4674L173.6 73.9674L163.6 114.667C203.5 117.267 231.2 122.767 231.2 129.267ZM161.8 133.867C161.8 133.067 160.9 132.367 159.3 131.767L159.1 132.567C159.1 133.867 154.1 134.967 148 134.967C141.9 134.967 136.9 133.867 136.9 132.567C136.9 132.467 136.9 132.367 137 132.267L137.2 131.567C135.4 132.167 134.2 132.967 134.2 133.867C134.2 135.967 140.4 137.567 147.9 137.567C155.6 137.667 161.8 135.967 161.8 133.867V133.867Z" fill="#00E0FF"/>
</svg>
